<svg xmlns="http://www.w3.org/2000/svg" xmlns:xlink="http://www.w3.org/1999/xlink" version="1.1" preserveAspectRatio="xMidYMid meet" viewBox="0 0 9 9" width="9" height="9"><defs><path d="M1.13 5.23C1.13 6.65 1.13 7.44 1.13 7.59C1.13 8.06 1.5 8.44 1.97 8.44C2.47 8.44 6.53 8.44 7.03 8.44C7.5 8.44 7.88 8.06 7.88 7.59C7.88 7.44 7.88 6.65 7.88 5.23L4.5 1.85L1.13 5.23ZM1.69 3.38L2.81 2.25C2.81 1.74 2.81 1.46 2.81 1.41C2.81 1.25 2.69 1.13 2.53 1.13C2.47 1.13 2.03 1.13 1.97 1.13C1.81 1.13 1.69 1.25 1.69 1.41C1.69 1.67 1.69 2.33 1.69 3.38Z" id="al3ZBLGoM"/><linearGradient id="gradientigAmCtTFQ" gradientUnits="userSpaceOnUse" x1="0" y1="1.13" x2="9" y2="8.44"><stop style="stop-color: #0d6efd;stop-opacity: 1" offset="0%"/><stop style="stop-color: #0FDBFF;stop-opacity: 1" offset="100%"/></linearGradient><path d="M4.9 0.84C5.27 1.22 8.26 4.21 8.64 4.58C8.75 4.69 8.75 4.87 8.64 4.98C8.53 5.09 8.35 5.09 8.24 4.98C7.99 4.73 6.74 3.48 4.5 1.24C2.26 3.48 1.01 4.73 0.76 4.98C0.65 5.09 0.47 5.09 0.36 4.98C0.25 4.87 0.25 4.69 0.36 4.58C0.36 4.58 0.36 4.58 0.36 4.58C0.61 4.33 1.86 3.09 4.1 0.84C4.49 0.7 4.75 0.7 4.9 0.84Z" id="a1oj5P8bh"/></defs><g><g><g><use xlink:href="#al3ZBLGoM" opacity="1" fill="url(#gradientigAmCtTFQ)"/><g><use xlink:href="#al3ZBLGoM" opacity="1" fill-opacity="0" stroke="#000000" stroke-width="1" stroke-opacity="0"/></g></g><g><use xlink:href="#a1oj5P8bh" opacity="1" fill="#0d6efd" fill-opacity="1"/><g><use xlink:href="#a1oj5P8bh" opacity="1" fill-opacity="0" stroke="#000000" stroke-width="1" stroke-opacity="0"/></g></g></g></g></svg>